<svg width="870" height="219" viewBox="0 0 870 219" fill="none" xmlns="http://www.w3.org/2000/svg">
<path d="M173.84 115.978C183.219 115.978 190.822 108.375 190.822 98.9961C190.822 89.6169 183.219 82.0137 173.84 82.0137C164.461 82.0137 156.857 89.6169 156.857 98.9961C156.857 108.375 164.461 115.978 173.84 115.978Z" fill="#070C2F"></path>
<path d="M86.1757 115.978C95.5549 115.978 103.158 108.375 103.158 98.9961C103.158 89.6169 95.5549 82.0137 86.1757 82.0137C76.7966 82.0137 69.1934 89.6169 69.1934 98.9961C69.1934 108.375 76.7966 115.978 86.1757 115.978Z" fill="#070C2F"></path>
<path d="M100.926 131.492H159.984C159.984 131.492 161.952 131.702 161.952 135.875C161.952 135.875 162.477 164.643 130.035 167.058C130.035 167.058 101.792 166.611 98.0651 136.978C98.0651 136.978 97.6188 132.594 100.926 131.492Z" fill="#070C2F"></path>
<path d="M255.713 84.8221C255.713 84.8221 261.54 101.883 258.81 124.351C258.81 124.351 253.771 185.981 189.044 209.237C189.044 209.237 130.511 230.183 66.5447 207.688C66.5447 207.688 42.8953 219.211 25.4667 218.109C25.4667 218.109 9.58675 215.458 8.79931 197.426C8.79931 197.426 12.2903 175.902 17.3299 167.004C17.3299 167.004 -3.98343 144.142 0.662449 99.5472C0.662449 99.5472 5.30832 43.3505 59.9564 19.7011C59.9564 19.7011 102.609 1.87879 187.101 15.8427C187.101 15.8427 191.747 21.6434 182.062 26.7093L166.943 34.0587L99.1182 33.6912C99.1182 33.6912 41.9241 32.6676 24.3117 90.6491C24.3117 90.6491 13.4452 127.475 38.6432 160.442C38.6432 160.442 39.1681 163.146 38.1182 168.317L29.8501 197.452C29.8501 197.452 43.7877 196.481 63.4212 187.189C63.4212 187.189 67.5683 184.853 72.7391 187.189C72.7391 187.189 87.228 198.055 139.409 195.194C139.409 195.194 234.505 202.701 238.626 107.343L246.001 91.8303C246.001 91.8303 249.492 83.2997 255.687 84.8484L255.713 84.8221Z" fill="url(#paint0_linear_30085_4937)"></path>
<path d="M218.103 99.9636C215.714 99.9636 213.588 98.4412 212.827 96.1576L205.241 73.4007C203.562 68.4136 199.677 64.5289 194.69 62.8491L171.933 55.2634C169.019 54.3185 167.444 51.1688 168.389 48.2552C168.941 46.5754 170.253 45.263 171.933 44.7118L194.69 37.1261C199.677 35.4463 203.562 31.5616 205.241 26.5745L212.827 3.81757C213.772 0.904059 216.922 -0.670815 219.835 0.274109C221.515 0.825315 222.827 2.13771 223.379 3.81757L230.964 26.5745C232.644 31.5616 236.529 35.4463 241.516 37.1261L264.273 44.7118C267.186 45.6567 268.761 48.8064 267.816 51.72C267.265 53.3998 265.953 54.7122 264.273 55.2634L241.516 62.8491C236.529 64.5289 232.644 68.4136 230.964 73.4007L223.379 96.1576C222.618 98.4412 220.491 99.9636 218.103 99.9636Z" fill="url(#paint1_linear_30085_4937)"></path>
<path d="M724.062 124.663C724.062 73.1263 752.674 44.2163 796.845 44.2163C841.015 44.2163 869.33 74.7984 869.33 124.663C869.33 174.527 840.719 204.543 796.845 204.543C752.97 204.543 724.062 174.231 724.062 124.663ZM831.982 124.663C831.982 92.3817 819.523 74.259 796.871 74.259C774.22 74.259 761.465 92.112 761.465 124.663C761.465 157.214 773.923 174.5 796.871 174.5C819.82 174.5 831.982 156.944 831.982 124.663Z" fill="#111D70"></path>
<path d="M640.523 48.4813H608.514V13.6382H572.271V152.984C572.271 186.964 586.995 204.52 617.871 204.52C627.795 204.52 635.993 202.821 639.957 200.825V174.208H633.161C613.044 174.208 608.514 165.713 608.514 149.855V76.7441H661.746V204.52H697.988V48.4543H640.496L640.523 48.4813Z" fill="#111D70"></path>
<path d="M522.569 149.855V13.6382H486.326V152.984C486.326 186.964 501.05 204.52 531.926 204.52C541.85 204.52 550.047 202.821 554.011 200.825V174.208H547.216C527.099 174.208 522.569 165.713 522.569 149.855Z" fill="#111D70"></path>
<path d="M417.751 166.196H338.902L324.771 204.545H288.07L357.67 19.6504H400.897L470.497 204.545H431.881L417.751 166.196ZM349.526 137.907H407.153L383.774 74.5579L378.326 55.5183L372.879 74.5579L349.499 137.907H349.526Z" fill="#111D70"></path>
<defs>
<linearGradient id="paint0_linear_30085_4937" x1="0.00625246" y1="114.351" x2="259.545" y2="114.351" gradientUnits="userSpaceOnUse">
<stop stop-color="#06B6D4"></stop>
<stop offset="1" stop-color="#2563EB"></stop>
</linearGradient>
<linearGradient id="paint1_linear_30085_4937" x1="168.101" y1="49.9614" x2="268.131" y2="49.9614" gradientUnits="userSpaceOnUse">
<stop stop-color="#06B6D4"></stop>
<stop offset="1" stop-color="#2563EB"></stop>
</linearGradient>
</defs>
</svg>