<svg width="173" height="32" viewBox="0 0 173 32" fill="none" xmlns="http://www.w3.org/2000/svg">
<path d="M31.7177 14.127C29.4763 11.8843 27.4283 13.6603 27.031 14.051L26.9683 14.1123C26.9657 14.1177 26.955 14.127 26.955 14.127V14.1257L16.871 24.211C16.8483 24.2323 16.8297 24.2443 16.8083 24.263L16.7177 24.355C16.7163 24.359 16.7137 24.359 16.7123 24.359L16.6657 24.407L16.6603 24.4017C16.2137 24.8217 15.751 24.9297 15.3483 24.8883C15.3097 24.8883 15.2697 24.875 15.2297 24.8697C15.2083 24.867 15.1857 24.867 15.1643 24.8617C14.2377 24.715 13.2723 23.5443 13.2723 23.5443L6.579 16.8523C5.34567 15.6177 6.579 14.363 6.579 14.363L14.3457 6.59633C14.3457 6.59633 15.763 5.155 17.203 6.59633L17.731 7.12433C18.083 7.515 18.7737 8.555 17.5657 9.763L13.1283 14.2017L13.0443 14.2843C12.7537 14.591 11.851 15.735 13.1283 17.0123L14.171 18.0577C15.2563 18.9537 16.1697 18.4537 16.6003 18.0937L23.807 10.8897C25.9763 8.71767 24.2723 6.71633 23.883 6.31367L23.807 6.235L19.0257 1.455C17.0857 -0.484998 13.9403 -0.484998 11.9977 1.455L1.455 11.999C-0.485 13.9403 -0.485 17.087 1.455 19.0283L11.9977 29.5723C13.9403 31.5137 17.0857 31.5137 19.0257 29.5723L28.291 20.307L28.3003 20.3177L33.1043 15.515L31.7177 14.127Z" fill="white"></path>
<path d="M60.5515 5.44266C60.5515 5.44266 60.5249 4.89333 59.9902 4.89333H47.7555C47.7555 4.89333 40.0889 3.92799 40.0889 12.5587V18.512C40.0889 18.512 39.2969 26.1973 47.7955 26.1973H59.7875C59.7875 26.1973 60.5355 26.26 60.5355 25.6547V22.5347C60.5355 22.5347 60.5502 21.9733 59.9902 21.9733H47.7555C47.7555 21.9733 44.2235 22.5053 44.2235 18.512V17.308H59.7875C59.7875 17.308 60.3795 17.3373 60.3795 16.7493V14.1293C60.3795 14.1293 60.4182 13.5467 59.7875 13.5467H44.2235V12.5587C44.2235 12.5587 43.7742 9.12799 47.7555 9.12799H59.9902C59.9902 9.12799 60.5355 9.10932 60.5355 8.57732L60.5515 5.44266Z" fill="white"></path>
<path d="M84.1452 5.44263C84.1452 5.44263 84.1332 4.86263 83.5652 4.86263H71.1092C71.1092 4.86263 63.4305 4.38263 63.4305 12.6253V18.512C63.4305 18.512 63.1252 26.2 71.1092 26.2H83.5279C83.5279 26.2 84.1305 26.144 84.1305 25.6386V22.5346C84.1305 22.5346 84.2079 21.9733 83.5665 21.9733H71.1092C71.1092 21.9733 67.6492 22.2573 67.6492 18.5373V12.6013C67.6492 12.6013 67.4385 9.12796 71.1092 9.12796H83.5665C83.5665 9.12796 84.1452 9.1573 84.1452 8.5773V5.44263Z" fill="white"></path>
<path d="M87.0221 5.44263C87.0221 5.44263 87.0301 4.85863 87.6061 4.85863H90.6888C90.6888 4.85863 91.2341 4.86396 91.2341 5.44263V13.4733H104.121V5.44263C104.121 5.44263 104.097 4.85596 104.706 4.85596H107.75C107.75 4.85596 108.333 4.8573 108.333 5.43863V25.6546C108.333 25.6546 108.354 26.2 107.75 26.2H104.738C104.738 26.2 104.121 26.248 104.121 25.6546V17.4293H91.2341V25.6386C91.2341 25.6386 91.2675 26.1933 90.6888 26.1933H87.6035C87.6035 26.1933 87.0221 26.2013 87.0221 25.6546V5.44263Z" fill="white"></path>
<path d="M127.591 21.9657H119.02C119.02 21.9657 115.535 22.155 115.535 18.543C115.535 14.9297 115.541 12.543 115.541 12.543C115.541 12.543 115.225 9.12832 119.02 9.12832H127.591C127.591 9.12832 131.025 8.93232 131.025 12.543V18.543C131.025 18.543 131.203 21.9657 127.591 21.9657ZM135.252 18.543V12.543C135.252 4.24832 127.56 4.85632 127.56 4.85632H119.02C110.604 4.85632 111.333 12.543 111.333 12.543V18.543C111.333 26.8683 119.02 26.1977 119.02 26.1977H127.591C135.764 26.1977 135.252 18.543 135.252 18.543Z" fill="white"></path>
<path d="M142.213 25.6539V5.44195C142.213 5.44195 142.203 4.88061 142.816 4.88061H145.816C145.816 4.88061 146.425 4.79261 146.425 5.44195V25.6539C146.425 25.6539 146.448 26.1979 145.816 26.1979H142.816C142.816 26.1979 142.213 26.1526 142.213 25.6539Z" fill="white"></path>
<path d="M149.303 5.53405C149.303 5.53405 149.263 4.87672 149.915 4.87672H171.555C171.555 4.87672 172.107 4.84205 172.107 5.44205V8.53272C172.107 8.53272 172.11 9.12739 171.555 9.12739H162.821V25.6634C162.821 25.6634 162.87 26.1967 162.259 26.1967H159.183C159.183 26.1967 158.609 26.2287 158.609 25.6541V9.12739H149.915C149.915 9.12739 149.303 9.16872 149.303 8.53272V5.53405Z" fill="white"></path>
</svg>