<svg width="172" height="31" xmlns="http://www.w3.org/2000/svg" xmlns:undefined="http://www.inkscape.org/namespaces/inkscape">
 <title>Drawing</title>
 <defs>
  <linearGradient id="svg_16" spreadMethod="pad" gradientTransform="matrix(104.62376288828636,0,0,104.62376288828636,211.10730375206572,1204.0059707161163)" gradientUnits="userSpaceOnUse" y2="0" x2="1" y1="0" x1="0">
   <stop stop-color="#89c895" id="svg_25" offset="0"></stop>
   <stop stop-color="#009ce0" id="svg_24" offset="1"></stop>
  </linearGradient>
 </defs>
 <g id="Layer_1">
  <title>Layer 1</title>
  <g>
   <defs transform="translate(-0.0000038147 0.000017484) translate(0 -284.487) translate(-313.947 0) translate(282.223 0) translate(0 233.333)" id="svg_17">
    <clipPath id="svg_14" clipPathUnits="userSpaceOnUse">
     <path id="svg_23" transform="translate(-0.0000038147 0.000017484)" d="m-100.92903,-8.70705l180,0l0,-100l-180,0l0,100z"></path>
    </clipPath>
    <clipPath id="svg_12" clipPathUnits="userSpaceOnUse">
     <path id="svg_22" transform="translate(-0.0000038147 0.000017484)" d="m-118.62433,-8.70705l180,0l0,-100l-180,0l0,100z"></path>
    </clipPath>
    <clipPath id="svg_10" clipPathUnits="userSpaceOnUse">
     <path id="svg_21" transform="translate(-0.0000038147 0.000017484)" d="m-120.78214,-8.70705l180,0l0,-100l-180,0l0,100z"></path>
    </clipPath>
    <clipPath id="svg_8" clipPathUnits="userSpaceOnUse">
     <path id="svg_20" transform="translate(-0.0000038147 0.000017484)" d="m-151.20853,3.68535l180,0l0,-100l-180,0l0,100z"></path>
    </clipPath>
    <clipPath id="svg_6" clipPathUnits="userSpaceOnUse">
     <path id="svg_19" transform="translate(-0.0000038147 0.000017484)" d="m-162.17554,6.45145l180,0l0,-100l-180,0l0,100z"></path>
    </clipPath>
    <clipPath id="svg_4" clipPathUnits="userSpaceOnUse">
     <path id="svg_18" transform="translate(-0.0000038147 0.000017484)" d="m-167.49294,-8.63835l180,0l0,-100l-180,0l0,100z"></path>
    </clipPath>
   </defs>
   <g id="svg_2">
    <path fill="url(#svg_16)" transform="matrix(1.33333 0 0 -1.33333 0 133.333)" d="m8.9985,98.909l-7.908,-7.907c-1.454,-1.457 -1.454,-3.817 0,-5.273l0,0l7.908,-7.908c1.456,-1.455 3.815,-1.455 5.27,0l0,0l6.949,6.95l0.008,-0.008l3.602,3.601l-1.04,1.042c-1.681,1.681 -3.216,0.35 -3.514,0.057l0,0l-0.048,-0.046c-0.002,-0.005 -0.01,-0.011 -0.01,-0.011l0,0l-7.563,-7.563c-0.017,-0.017 -0.031,-0.026 -0.046,-0.039l0,0l-0.069,-0.07c-0.001,-0.002 -0.002,-0.002 -0.003,-0.002l0,0l-0.036,-0.036l-0.004,0.003c-0.335,-0.315 -0.681,-0.396 -0.984,-0.364l0,0l0,-0.001c-0.028,0 -0.059,0.011 -0.089,0.014l0,0c-0.016,0.002 -0.033,0.002 -0.048,0.006l0,0c-0.696,0.111 -1.42,0.988 -1.42,0.988l0,0l-5.02,5.02c-0.925,0.925 0,1.867 0,1.867l0,0l5.825,5.825c0,0 1.064,1.08 2.144,0l0,0l0.396,-0.397c0.264,-0.292 0.781,-1.073 -0.125,-1.979l0,0l-3.328,-3.328l-0.063,-0.062c-0.218,-0.23 -0.894,-1.089 0.063,-2.047l0,0l0.782,-0.784c0.814,-0.672 1.5,-0.297 1.823,-0.028l0,0l5.404,5.404c1.628,1.63 0.349,3.13 0.057,3.432l0,0l-0.057,0.059l-3.586,3.585c-0.728,0.728 -1.681,1.091 -2.635,1.091l0,0c-0.954,0 -1.907,-0.363 -2.635,-1.091" id="svg_15"></path>
    <path fill-rule="nonzero" fill="#009ce0" clip-path="url(#svg_14)" transform="matrix(1.33333 0 0 -1.33333 92.2743 56.5951)" d="m-23.7925,38.365c0,0 -0.02,0.412 -0.421,0.412l-9.176,0c0,0 -5.75,0.724 -5.75,-5.749l0,-4.465c0,0 -0.594,-5.764 5.78,-5.764l8.994,0c0,0 0.561,-0.047 0.561,0.407l0,2.34c0,0 0.011,0.421 -0.409,0.421l-9.176,0c0,0 -2.649,-0.399 -2.649,2.596l0,0.903l11.673,0c0,0 0.444,-0.022 0.444,0.419l0,1.965c0,0 0.029,0.437 -0.444,0.437l-11.673,0l0,0.741c0,0 -0.337,2.573 2.649,2.573l9.176,0c0,0 0.409,0.014 0.409,0.413l0.012,2.351z" id="svg_13"></path>
    <path fill-rule="nonzero" fill="#009ce0" clip-path="url(#svg_12)" transform="matrix(1.33333 0 0 -1.33333 115.868 56.5951)" d="m-23.7925,38.365c0,0 -0.009,0.435 -0.435,0.435l-9.342,0c0,0 -5.759,0.36 -5.759,-5.822l0,-4.415c0,0 -0.229,-5.766 5.759,-5.766l9.314,0c0,0 0.452,0.042 0.452,0.421l0,2.328c0,0 0.058,0.421 -0.423,0.421l-9.343,0c0,0 -2.595,-0.213 -2.595,2.577l0,4.452c0,0 -0.158,2.605 2.595,2.605l9.343,0c0,0 0.434,-0.022 0.434,0.413l0,2.351z" id="svg_11"></path>
    <path fill-rule="nonzero" fill="#009ce0" clip-path="url(#svg_10)" transform="matrix(1.33333 0 0 -1.33333 118.745 56.5951)" d="m-23.7925,38.365c0,0 0.006,0.438 0.438,0.438l2.312,0c0,0 0.409,-0.004 0.409,-0.438l0,-6.023l9.665,0l0,6.023c0,0 -0.018,0.44 0.439,0.44l2.283,0c0,0 0.437,-0.001 0.437,-0.437l0,-15.162c0,0 0.016,-0.409 -0.437,-0.409l-2.259,0c0,0 -0.463,-0.036 -0.463,0.409l0,6.169l-9.665,0l0,-6.157c0,0 0.025,-0.416 -0.409,-0.416l-2.314,0c0,0 -0.436,-0.006 -0.436,0.404l0,15.159z" id="svg_9"></path>
    <path fill-rule="nonzero" fill="#009ce0" clip-path="url(#svg_8)" transform="matrix(1.33333 0 0 -1.33333 159.314 73.1183)" d="m-23.7925,38.365l-6.428,0c0,0 -2.614,-0.142 -2.614,2.567c0,2.71 0.005,4.5 0.005,4.5c0,0 -0.237,2.561 2.609,2.561l6.428,0c0,0 2.576,0.147 2.576,-2.561l0,-4.5c0,0 0.133,-2.567 -2.576,-2.567m5.746,2.567l0,4.5c0,6.221 -5.769,5.765 -5.769,5.765l-6.405,0c-6.312,0 -5.765,-5.765 -5.765,-5.765l0,-4.5c0,-6.244 5.765,-5.741 5.765,-5.741l6.428,0c6.13,0 5.746,5.741 5.746,5.741" id="svg_7"></path>
    <path fill-rule="nonzero" fill="#595858" clip-path="url(#svg_6)" transform="matrix(1.33333 0 0 -1.33333 173.936 76.8064)" d="m-23.7925,38.365l0,15.159c0,0 -0.008,0.421 0.452,0.421l2.25,0c0,0 0.457,0.066 0.457,-0.421l0,-15.159c0,0 0.017,-0.408 -0.457,-0.408l-2.25,0c0,0 -0.452,0.034 -0.452,0.408" id="svg_5"></path>
    <path fill-rule="nonzero" fill="#595858" clip-path="url(#svg_4)" transform="matrix(1.33333 0 0 -1.33333 181.026 56.6867)" d="m-23.7925,38.365c0,0 -0.03,0.493 0.459,0.493l16.23,0c0,0 0.414,0.026 0.414,-0.424l0,-2.318c0,0 0.002,-0.446 -0.414,-0.446l-6.551,0l0,-12.402c0,0 0.037,-0.4 -0.421,-0.4l-2.307,0c0,0 -0.431,-0.024 -0.431,0.407l0,12.395l-6.52,0c0,0 -0.459,-0.031 -0.459,0.446l0,2.249z" id="svg_3"></path>
   </g>
  </g>
 </g>
</svg>